<svg xmlns="http://www.w3.org/2000/svg" height="40px" viewBox="0 -960 960 960" width="40px" fill="#000000"><path d="M584-106.67h266.67V-139q-25.67-29-60-45-34.34-16-73.34-16T644-184q-34.33 16-60 45v32.33ZM717.33-240q25 0 42.5-17.5t17.5-42.5q0-25-17.5-42.5t-42.5-17.5q-25 0-42.5 17.5t-17.5 42.5q0 25 17.5 42.5t42.5 17.5ZM480-480Zm.67-133.33q-55.34 0-94.34 39t-39 94.33q0 44.67 25 78.67t65 48q0-19 .84-37.34Q439-409 443-424q-14-8.67-21.5-24t-7.5-32q0-27.67 19.5-47.17t47.17-19.5q17 0 32.16 8.17Q528-530.33 537-515.33q9.67-3 20-4t20.33-1h30q-13-40.34-47.5-66.67t-79.16-26.33ZM382-80l-18.67-126.67q-17-6.33-34.83-16.66-17.83-10.34-32.17-21.67L178-192.33 79.33-365l106.34-78.67q-1.67-8.33-2-18.16-.34-9.84-.34-18.17 0-8.33.34-18.17.33-9.83 2-18.16L79.33-595 178-767.67 296.33-715q14.34-11.33 32.34-21.67 18-10.33 34.66-16L382-880h196l18.67 126.67q17 6.33 35.16 16.33 18.17 10 31.84 22L782-767.67 880.67-595l-100.34 75v.67-.67H706q-1-6.33-2-12.5t-3-12.5l91.33-67.67-39.66-70.66L649-638.67q-22.67-25-50.83-41.83-28.17-16.83-61.84-22.83l-13.66-110h-85l-14 110q-33 7.33-61.5 23.83T311-639l-103.67-44.33-39.66 70.66L259-545.33Q254.67-529 252.33-513 250-497 250-480q0 16.67 2.33 32.67 2.34 16 6.67 32.33l-91.33 67.67 39.66 70.66L311-321.33q25.33 25.66 57.67 43Q401-261 437.33-254v174H382Zm195.33 40q-25 0-42.5-17.5t-17.5-42.5v-280q0-25 17.5-42.5t42.5-17.5h280q25 0 42.5 17.5t17.5 42.5v280q0 25-17.5 42.5T857.33-40h-280Z"/></svg>